{
  "source": "C:\\Users\\Peter\\Desktop\\stuff\\MIUN\\quantitative_research\\video_compression\\videos\\BVI-HD\\BVI-HD_CDVL_videos\\ORIG\\Typing_1920x1080_60fps.mp4",
  "output": "C:\\Users\\Peter\\Desktop\\stuff\\MIUN\\quantitative_research\\video_compression\\compressed_videos\\BVI-HD\\vp9\\2.5\\Typing_1920x1080_60fps_vp9.webm",
  "codec": "vp9",
  "ok": "Input #0, mov,mp4,m4a,3gp,3g2,mj2, from 'C:\\Users\\Peter\\Desktop\\stuff\\MIUN\\quantitative_research\\video_compression\\videos\\BVI-HD\\BVI-HD_CDVL_videos\\ORIG\\Typing_1920x1080_60fps.mp4':\n  Metadata:\n    major_brand     : isom\n    minor_version   : 512\n    compatible_brands: isomiso2avc1mp41\n    encoder         : Lavf54.28.101\n  Duration: 00:00:05.00, start: 0.000000, bitrate: 203453 kb/s\n  Stream #0:0[0x1](und): Video: h264 (High 4:4:4 Predictive) (avc1 / 0x31637661), yuv420p(progressive), 1920x1080, 203448 kb/s, 60 fps, 60 tbr, 60 tbn (default)\n    Metadata:\n      handler_name    : VideoHandler\n      vendor_id       : [0][0][0][0]\n[out#0/webm @ 000001ae86699880] Codec AVOption b:a (set bitrate (in bits/s)) has not been used for any stream. The most likely reason is either wrong type (e.g. a video option with no video streams) or that it is a private option of some decoder which was not actually used for any stream.\nStream mapping:\n  Stream #0:0 -> #0:0 (h264 (native) -> vp9 (libvpx-vp9))\nPress [q] to stop, [?] for help\n[libvpx-vp9 @ 000001ae866ad180] v1.15.2-100-g40561f514\nOutput #0, webm, to 'C:\\Users\\Peter\\Desktop\\stuff\\MIUN\\quantitative_research\\video_compression\\compressed_videos\\BVI-HD\\vp9\\2.5\\Typing_1920x1080_60fps_vp9.webm':\n  Metadata:\n    major_brand     : isom\n    minor_version   : 512\n    compatible_brands: isomiso2avc1mp41\n    encoder         : Lavf62.3.100\n  Stream #0:0(und): Video: vp9, yuv420p(tv, progressive), 1920x1080, q=2-31, 2500 kb/s, 60 fps, 1k tbn (default)\n    Metadata:\n      encoder         : Lavc62.11.100 libvpx-vp9\n      handler_name    : VideoHandler\n      vendor_id       : [0][0][0][0]\n    Side data:\n      cpb: bitrate max/min/avg: 0/0/0 buffer size: 2500000 vbv_delay: N/A\nframe=    2 fps=0.0 q=63.0 size=       1KiB time=00:00:00.03 bitrate= 151.9kbits/s speed=0.0649x elapsed=0:00:00.51    \nframe=   10 fps=9.5 q=39.0 size=       1KiB time=00:00:00.16 bitrate=  30.4kbits/s speed=0.158x elapsed=0:00:01.05    \nframe=   15 fps=9.4 q=37.0 size=       1KiB time=00:00:00.25 bitrate=  20.3kbits/s speed=0.157x elapsed=0:00:01.59    \nframe=   21 fps=9.9 q=36.0 size=       1KiB time=00:00:00.35 bitrate=  14.5kbits/s speed=0.165x elapsed=0:00:02.12    \nframe=   26 fps=9.9 q=38.0 size=       1KiB time=00:00:00.43 bitrate=  11.7kbits/s speed=0.165x elapsed=0:00:02.63    \nframe=   33 fps= 10 q=37.0 size=       1KiB time=00:00:00.55 bitrate=   9.2kbits/s speed=0.174x elapsed=0:00:03.15    \nframe=   37 fps= 10 q=21.0 size=       1KiB time=00:00:00.61 bitrate=   8.2kbits/s speed=0.167x elapsed=0:00:03.68    \nframe=   44 fps= 10 q=36.0 size=       1KiB time=00:00:00.73 bitrate=   6.9kbits/s speed=0.174x elapsed=0:00:04.21    \nframe=   50 fps= 11 q=33.0 size=       1KiB time=00:00:00.83 bitrate=   6.1kbits/s speed=0.175x elapsed=0:00:04.75    \nframe=   56 fps= 11 q=33.0 size=       1KiB time=00:00:00.93 bitrate=   5.4kbits/s speed=0.177x elapsed=0:00:05.27    \nframe=   61 fps= 10 q=17.0 size=       1KiB time=00:00:01.01 bitrate=   5.0kbits/s speed=0.175x elapsed=0:00:05.81    \nframe=   67 fps= 11 q=34.0 size=       1KiB time=00:00:01.11 bitrate=   4.5kbits/s speed=0.177x elapsed=0:00:06.32    \nframe=   72 fps= 11 q=36.0 size=       1KiB time=00:00:01.20 bitrate=   4.2kbits/s speed=0.176x elapsed=0:00:06.82    \nframe=   79 fps= 11 q=35.0 size=       1KiB time=00:00:01.31 bitrate=   3.8kbits/s speed=0.179x elapsed=0:00:07.35    \nframe=   84 fps= 11 q=36.0 size=       1KiB time=00:00:01.40 bitrate=   3.6kbits/s speed=0.178x elapsed=0:00:07.87    \nframe=   91 fps= 11 q=37.0 size=       1KiB time=00:00:01.51 bitrate=   3.3kbits/s speed=0.181x elapsed=0:00:08.38    \nframe=   96 fps= 11 q=35.0 size=       1KiB time=00:00:01.60 bitrate=   3.2kbits/s speed=0.179x elapsed=0:00:08.91    \nframe=  103 fps= 11 q=36.0 size=       1KiB time=00:00:01.71 bitrate=   2.9kbits/s speed=0.182x elapsed=0:00:09.45    \nframe=  108 fps= 11 q=35.0 size=       1KiB time=00:00:01.80 bitrate=   2.8kbits/s speed=0.18x elapsed=0:00:09.97    \nframe=  116 fps= 11 q=37.0 size=       1KiB time=00:00:01.93 bitrate=   2.6kbits/s speed=0.184x elapsed=0:00:10.50    \nframe=  121 fps= 11 q=34.0 size=       1KiB time=00:00:02.01 bitrate=   2.5kbits/s speed=0.183x elapsed=0:00:11.03    \nframe=  128 fps= 11 q=37.0 size=       1KiB time=00:00:02.13 bitrate=   2.4kbits/s speed=0.185x elapsed=0:00:11.55    \nframe=  134 fps= 11 q=38.0 size=     512KiB time=00:00:02.23 bitrate=1878.0kbits/s speed=0.185x elapsed=0:00:12.07    \nframe=  140 fps= 11 q=18.0 size=     512KiB time=00:00:02.33 bitrate=1797.6kbits/s speed=0.185x elapsed=0:00:12.59    \nframe=  147 fps= 11 q=33.0 size=     512KiB time=00:00:02.45 bitrate=1712.0kbits/s speed=0.187x elapsed=0:00:13.12    \nframe=  152 fps= 11 q=18.0 size=     512KiB time=00:00:02.53 bitrate=1655.6kbits/s speed=0.186x elapsed=0:00:13.64    \nframe=  158 fps= 11 q=28.0 size=     512KiB time=00:00:02.63 bitrate=1592.8kbits/s speed=0.186x elapsed=0:00:14.18    \nframe=  163 fps= 11 q=28.0 size=     512KiB time=00:00:02.71 bitrate=1543.9kbits/s speed=0.185x elapsed=0:00:14.69    \nframe=  169 fps= 11 q=29.0 size=     512KiB time=00:00:02.81 bitrate=1489.1kbits/s speed=0.185x elapsed=0:00:15.20    \nframe=  175 fps= 11 q=28.0 size=     512KiB time=00:00:02.91 bitrate=1438.0kbits/s speed=0.185x elapsed=0:00:15.74    \nframe=  180 fps= 11 q=28.0 size=     512KiB time=00:00:03.00 bitrate=1398.1kbits/s speed=0.184x elapsed=0:00:16.28    \nframe=  186 fps= 11 q=34.0 size=     512KiB time=00:00:03.10 bitrate=1353.0kbits/s speed=0.185x elapsed=0:00:16.78    \nframe=  192 fps= 11 q=35.0 size=     512KiB time=00:00:03.20 bitrate=1310.7kbits/s speed=0.185x elapsed=0:00:17.30    \nframe=  198 fps= 11 q=35.0 size=     512KiB time=00:00:03.30 bitrate=1271.0kbits/s speed=0.185x elapsed=0:00:17.83    \nframe=  203 fps= 11 q=32.0 size=     512KiB time=00:00:03.38 bitrate=1239.7kbits/s speed=0.184x elapsed=0:00:18.35    \nframe=  209 fps= 11 q=35.0 size=     512KiB time=00:00:03.48 bitrate=1204.1kbits/s speed=0.184x elapsed=0:00:18.88    \nframe=  214 fps= 11 q=33.0 size=     512KiB time=00:00:03.56 bitrate=1176.0kbits/s speed=0.184x elapsed=0:00:19.43    \nframe=  218 fps= 11 q=35.0 size=     512KiB time=00:00:03.63 bitrate=1154.4kbits/s speed=0.181x elapsed=0:00:20.02    \nframe=  221 fps= 11 q=33.0 size=     512KiB time=00:00:03.68 bitrate=1138.7kbits/s speed=0.178x elapsed=0:00:20.65    \nframe=  225 fps= 11 q=35.0 size=     512KiB time=00:00:03.75 bitrate=1118.5kbits/s speed=0.177x elapsed=0:00:21.20    \nframe=  230 fps= 11 q=33.0 size=     512KiB time=00:00:03.83 bitrate=1094.2kbits/s speed=0.176x elapsed=0:00:21.76    \nframe=  235 fps= 11 q=32.0 size=     512KiB time=00:00:03.91 bitrate=1070.9kbits/s speed=0.175x elapsed=0:00:22.32    \nframe=  240 fps= 10 q=34.0 size=     512KiB time=00:00:04.00 bitrate=1048.6kbits/s speed=0.175x elapsed=0:00:22.86    \nframe=  245 fps= 10 q=35.0 size=     512KiB time=00:00:04.08 bitrate=1027.2kbits/s speed=0.174x elapsed=0:00:23.42    \nframe=  249 fps= 10 q=33.0 size=     512KiB time=00:00:04.15 bitrate=1010.7kbits/s speed=0.173x elapsed=0:00:24.00    \nframe=  255 fps= 10 q=34.0 size=     512KiB time=00:00:04.25 bitrate= 986.9kbits/s speed=0.173x elapsed=0:00:24.51    \nframe=  260 fps= 10 q=35.0 size=    1024KiB time=00:00:04.33 bitrate=1935.8kbits/s speed=0.173x elapsed=0:00:25.03    \nframe=  265 fps= 10 q=32.0 size=    1024KiB time=00:00:04.41 bitrate=1899.3kbits/s speed=0.173x elapsed=0:00:25.56    \nframe=  270 fps= 10 q=35.0 size=    1024KiB time=00:00:04.50 bitrate=1864.1kbits/s speed=0.172x elapsed=0:00:26.09    \nframe=  273 fps= 10 q=34.0 size=    1024KiB time=00:00:04.55 bitrate=1843.7kbits/s speed=0.171x elapsed=0:00:26.65    \nframe=  276 fps= 10 q=34.0 size=    1024KiB time=00:00:04.60 bitrate=1823.6kbits/s speed=0.169x elapsed=0:00:27.18    \nframe=  276 fps= 10 q=34.0 size=    1024KiB time=00:00:04.60 bitrate=1823.6kbits/s speed=0.166x elapsed=0:00:27.72    \nframe=  276 fps=9.8 q=34.0 size=    1024KiB time=00:00:04.60 bitrate=1823.6kbits/s speed=0.163x elapsed=0:00:28.23    \nframe=  276 fps=9.6 q=34.0 size=    1024KiB time=00:00:04.60 bitrate=1823.6kbits/s speed=0.16x elapsed=0:00:28.76    \nframe=  276 fps=9.4 q=34.0 size=    1024KiB time=00:00:04.60 bitrate=1823.6kbits/s speed=0.157x elapsed=0:00:29.33    \n[out#0/webm @ 000001ae86699880] video:1564KiB audio:0KiB subtitle:0KiB other streams:0KiB global headers:0KiB muxing overhead: 0.177812%\nframe=  300 fps= 10 q=36.0 Lsize=    1567KiB time=00:00:05.00 bitrate=2567.3kbits/s speed=0.168x elapsed=0:00:29.83    \n",
  "seconds": 30.058194160461426,
  "probe_out": {}
}